HIERARCHY
ROOT Hips
{
	OFFSET 0.00000 0.00000 0.00000
	CHANNELS 6 Xposition Yposition Zposition Zrotation Yrotation Xrotation 
	JOINT LHipJoint
	{
		OFFSET 0 0 0
		CHANNELS 3 Zrotation Yrotation Xrotation
		JOINT LeftUpLeg
		{
			OFFSET 1.36337 -1.57426 1.11036
			CHANNELS 3 Zrotation Yrotation Xrotation
			JOINT LeftLeg
			{
				OFFSET 2.38468 -6.55187 0.00000
				CHANNELS 3 Zrotation Yrotation Xrotation
				JOINT LeftFoot
				{
					OFFSET 2.37166 -6.51609 0.00000
					CHANNELS 3 Zrotation Yrotation Xrotation
					JOINT LeftToeBase
					{
						OFFSET 0.29078 -0.79891 2.01393
						CHANNELS 3 Zrotation Yrotation Xrotation
						End Site
						{
							OFFSET 0.00000 -0.00000 1.07924
						}
					}
				}
			}
		}
	}
	JOINT RHipJoint
	{
		OFFSET 0 0 0
		CHANNELS 3 Zrotation Yrotation Xrotation
		JOINT RightUpLeg
		{
			OFFSET -1.36349 -1.57426 1.11036
			CHANNELS 3 Zrotation Yrotation Xrotation
			JOINT RightLeg
			{
				OFFSET -2.29562 -6.30717 0.00000
				CHANNELS 3 Zrotation Yrotation Xrotation
				JOINT RightFoot
				{
					OFFSET -2.40985 -6.62100 0.00000
					CHANNELS 3 Zrotation Yrotation Xrotation
					JOINT RightToeBase
					{
						OFFSET -0.23197 -0.63733 1.92232
						CHANNELS 3 Zrotation Yrotation Xrotation
						End Site
						{
							OFFSET -0.00000 -0.00000 1.01562
						}
					}
				}
			}
		}
	}
	JOINT LowerBack
	{
		OFFSET 0 0 0
		CHANNELS 3 Zrotation Yrotation Xrotation
		JOINT Spine
		{
			OFFSET -0.08565 2.03602 -0.24562
			CHANNELS 3 Zrotation Yrotation Xrotation
			JOINT Spine1
			{
				OFFSET -0.00036 2.05693 0.00216
				CHANNELS 3 Zrotation Yrotation Xrotation
				JOINT Neck
				{
					OFFSET 0 0 0
					CHANNELS 3 Zrotation Yrotation Xrotation
					JOINT Neck1
					{
						OFFSET -0.03664 1.69515 0.31789
						CHANNELS 3 Zrotation Yrotation Xrotation
						JOINT Head
						{
							OFFSET 0.00932 1.70181 -0.46013
							CHANNELS 3 Zrotation Yrotation Xrotation
							End Site
							{
								OFFSET 0.01243 1.77620 -0.19377
							}
						}
					}
				}
				JOINT LeftShoulder
				{
					OFFSET 0 0 0
					CHANNELS 3 Zrotation Yrotation Xrotation
					JOINT LeftArm
					{
						OFFSET 3.74344 0.81315 -0.36647
						CHANNELS 3 Zrotation Yrotation Xrotation
						JOINT LeftForeArm
						{
							OFFSET 4.97185 -0.00000 -0.00000
							CHANNELS 3 Zrotation Yrotation Xrotation
							JOINT LeftHand
							{
								OFFSET 3.35811 -0.00000 0.00000
								CHANNELS 3 Zrotation Yrotation Xrotation
								JOINT LeftFingerBase
								{
									OFFSET 0 0 0
									CHANNELS 3 Zrotation Yrotation Xrotation
									JOINT LeftHandIndex1
									{
										OFFSET 0.62278 -0.00000 0.00000
										CHANNELS 3 Zrotation Yrotation Xrotation
										End Site
										{
											OFFSET 0.50210 -0.00000 0.00000
										}
									}
								}
								JOINT LThumb
								{
									OFFSET 0 0 0
									CHANNELS 3 Zrotation Yrotation Xrotation
									End Site
									{
										OFFSET 0.50976 -0.00000 0.50976
									}
								}
							}
						}
					}
				}
				JOINT RightShoulder
				{
					OFFSET 0 0 0
					CHANNELS 3 Zrotation Yrotation Xrotation
					JOINT RightArm
					{
						OFFSET -3.75385 0.50666 -0.06525
						CHANNELS 3 Zrotation Yrotation Xrotation
						JOINT RightForeArm
						{
							OFFSET -4.96493 -0.00000 -0.00000
							CHANNELS 3 Zrotation Yrotation Xrotation
							JOINT RightHand
							{
								OFFSET -3.34929 -0.00000 0.00000
								CHANNELS 3 Zrotation Yrotation Xrotation
								JOINT RightFingerBase
								{
									OFFSET 0 0 0
									CHANNELS 3 Zrotation Yrotation Xrotation
									JOINT RightHandIndex1
									{
										OFFSET -0.63804 -0.00000 0.00000
										CHANNELS 3 Zrotation Yrotation Xrotation
										End Site
										{
											OFFSET -0.51441 -0.00000 0.00000
										}
									}
								}
								JOINT RThumb
								{
									OFFSET 0 0 0
									CHANNELS 3 Zrotation Yrotation Xrotation
									End Site
									{
										OFFSET -0.52226 -0.00000 0.52226
									}
								}
							}
						}
					}
				}
			}
		}
	}
}
MOTION
Frames: 9
Frame Time: .0083333
2.7325 17.0646 -1.4492 122.2580 -80.9214 -114.6050 0.0000 0.0000 0.0000 -18.4253 -0.4752 -13.0042 2.0916 9.0544 25.9655 0.5695 -0.2839 -14.1644 0.3812 -3.9652 -10.9789 0.0000 0.0000 0.0000 10.0792 3.0759 -9.7093 -1.0853 -6.6211 18.5975 -0.6903 -10.0975 -22.4335 -0.5340 -4.6825 13.0053 -2.9012 -1.0602 -6.8198 1.0147 -1.2214 0.6046 2.5535 -0.6906 4.5394 -9.4447 -6.7514 -23.0973 0.3566 -6.3853 23.6415 0.5740 -3.7436 11.9429 0.0000 -0.0000 0.0000 -94.9690 6.3436 23.5062 18.0109 -28.1711 -4.5544 -0.0000 0.0000 -11.3671 16.8840 -9.2249 -2.7856 -7.1250 0.0000 -0.0000 -7.2001 20.3825 4.2750 0.0000 -0.0000 0.0000 85.8534 -2.2169 2.6153 -15.2664 24.5159 -3.3357 0.0000 -0.0000 -8.3706 -10.7588 -34.0013 6.0654 7.1250 -0.0000 -0.0000 26.6467 -62.4825 -11.7615
2.7150 17.0586 -1.4051 122.1360 -81.4553 -114.4120 0.0000 0.0000 0.0000 -18.3071 -0.7082 -12.9822 2.0917 9.0544 25.9657 0.6108 -0.2066 -14.6984 0.3340 -3.7143 -10.2742 0.0000 0.0000 0.0000 10.4316 3.0769 -9.5769 -1.0695 -6.5745 18.4606 -0.6965 -10.1055 -22.4973 -0.5640 -4.8100 13.3675 -2.8166 -1.0699 -6.8101 1.0948 -1.2473 0.4498 2.5875 -0.6985 4.3742 -9.1052 -6.5122 -23.3016 0.3736 -6.1460 23.7088 0.5638 -3.6027 11.9805 0.0000 0.0000 0.0000 -95.3179 6.2816 23.4659 17.5714 -27.6048 -4.3488 -0.0000 0.0000 -11.8228 17.1309 -9.0059 -2.7623 -7.1250 0.0000 -0.0000 -7.0261 20.5954 4.1362 0.0000 0.0000 0.0000 86.2274 -3.4159 5.0469 -15.8299 25.2895 -3.5730 0.0000 -0.0000 -8.4880 -11.2512 -33.4378 6.2557 7.1250 -0.0000 -0.0000 25.5693 -62.1102 -11.0268
2.6990 17.0527 -1.3569 121.9360 -82.0709 -114.1140 0.0000 0.0000 0.0000 -18.1119 -1.0973 -12.8895 2.0909 9.0529 25.9610 0.6666 0.0804 -15.4598 0.2615 -3.2899 -9.0869 0.0000 0.0000 0.0000 10.8250 2.9201 -9.5927 -1.0672 -6.5675 18.4403 -0.7004 -10.0911 -22.5198 -0.5390 -4.7039 13.0659 -2.6551 -1.1149 -6.9020 1.2061 -1.3254 0.3252 2.6035 -0.7328 4.3002 -8.8537 -6.2340 -23.2578 0.5115 -5.8787 23.5506 0.6277 -3.4382 11.8902 0.0000 -0.0000 0.0000 -95.6180 6.1642 23.5066 17.0736 -26.9547 -4.1206 -0.0000 0.0000 -12.1766 17.4313 -9.0004 -2.8121 -7.1250 0.0000 -0.0000 -6.8106 20.5842 4.0093 0.0000 -0.0000 0.0000 86.5746 -4.3735 7.1666 -16.2140 25.8100 -3.7387 0.0000 -0.0000 -8.4645 -11.8497 -33.1467 6.5446 7.1250 -0.0000 -0.0000 24.6574 -62.0011 -10.5431
2.6853 17.0402 -1.3087 121.4130 -82.5869 -113.4980 0.0000 0.0000 0.0000 -18.0137 -1.5654 -12.7825 2.0981 9.0675 26.0067 0.7297 0.3416 -16.2693 0.1757 -2.7000 -7.4446 0.0000 0.0000 0.0000 11.1114 3.1333 -9.4254 -1.0570 -6.5369 18.3504 -0.6972 -10.4620 -22.8351 -0.5540 -4.7680 13.2480 -2.5945 -1.1784 -7.0867 1.3078 -1.4166 0.2699 2.6627 -0.7785 4.3539 -8.5720 -5.9133 -23.4072 0.5399 -5.5139 23.5558 0.6552 -3.2444 11.8915 0.0000 0.0000 0.0000 -95.9397 5.9744 23.5005 16.6066 -26.3362 -3.9112 -0.0000 0.0000 -12.1616 17.7798 -8.9024 -2.8410 -7.1250 0.0000 -0.0000 -6.5613 20.6663 3.8484 0.0000 0.0000 0.0000 86.7916 -5.1252 9.2413 -16.5108 26.2084 -3.8688 0.0000 -0.0000 -8.7725 -11.9521 -32.7455 6.5320 7.1250 -0.0000 -0.0000 24.1746 -61.6670 -10.1316
2.6845 17.0304 -1.2438 117.8160 -82.7025 -109.7150 0.0000 0.0000 0.0000 -18.5695 -2.2059 -12.7714 2.0943 9.0598 25.9825 0.7841 0.6626 -16.9842 0.1030 -2.0696 -5.6981 0.0000 0.0000 0.0000 10.7020 2.1645 -9.8993 -1.0589 -6.5427 18.3673 -0.7058 -10.1696 -22.6409 -0.5593 -4.7903 13.3115 -2.7644 -1.2767 -7.2633 1.1809 -1.5239 0.1850 2.6123 -0.8332 4.3732 -8.2512 -5.6507 -23.6542 0.5334 -5.2254 23.5788 0.6474 -3.0846 11.9205 0.0000 0.0000 0.0000 -96.1267 5.7415 23.8322 16.1565 -25.7324 -3.7136 -0.0000 0.0000 -11.9355 18.3964 -8.4507 -2.7982 -7.1250 0.0000 -0.0000 -6.1210 21.1026 3.5265 0.0000 0.0000 0.0000 87.0727 -5.7150 11.0760 -16.7644 26.5461 -3.9815 0.0000 -0.0000 -9.1635 -11.5021 -32.0252 6.1589 7.1250 -0.0000 -0.0000 24.0002 -60.9086 -9.6203
2.6767 17.0222 -1.2084 119.0800 -83.2752 -110.9090 0.0000 0.0000 0.0000 -18.2349 -2.4162 -12.7892 2.0894 9.0498 25.9513 0.8325 1.0418 -17.6446 0.0754 -1.7718 -4.8754 0.0000 0.0000 0.0000 11.2668 3.6468 -9.3591 -1.0629 -6.5545 18.4021 -0.6614 -11.7740 -23.7851 -0.5656 -4.8167 13.3865 -2.5928 -1.1938 -7.5099 1.2534 -1.4248 0.3326 2.5971 -0.7867 4.6569 -7.9217 -5.4721 -24.1253 0.6240 -5.0556 23.4717 0.6508 -2.9566 11.9500 0.0000 -0.0000 0.0000 -96.1204 5.2528 24.5255 15.7154 -25.1332 -3.5242 -0.0000 0.0000 -11.8419 19.0307 -8.1456 -2.7980 -7.1250 0.0000 -0.0000 -5.6643 21.3871 3.2241 0.0000 -0.0000 0.0000 87.6066 -5.8597 12.2660 -16.9271 26.7616 -4.0545 0.0000 -0.0000 -9.0377 -11.3748 -31.1647 5.9436 7.1250 -0.0000 -0.0000 23.3976 -60.1000 -8.9098
2.6636 17.0159 -1.1561 117.1800 -83.4769 -108.8830 0.0000 0.0000 0.0000 -18.5263 -2.7182 -12.8704 2.0841 9.0391 25.9178 0.8734 1.4115 -18.2190 0.0669 -1.6686 -4.5905 0.0000 0.0000 0.0000 11.1556 3.5149 -9.4405 -1.0660 -6.5639 18.4296 -0.6315 -12.1702 -23.9243 -0.5565 -4.7785 13.2778 -2.6971 -1.2276 -7.4894 1.1827 -1.4593 0.1765 2.5798 -0.8014 4.4855 -7.6594 -5.2364 -24.4016 0.6780 -4.8045 23.5471 0.6678 -2.8116 12.0120 -0.0000 -0.0000 0.0000 -96.1199 5.2346 25.1660 15.3268 -24.5993 -3.3608 -0.0000 0.0000 -12.1146 19.7334 -8.4501 -3.0174 -7.1250 0.0000 -0.0000 -5.1556 21.0265 2.9743 -0.0000 -0.0000 0.0000 88.1072 -6.5048 13.2729 -17.1664 27.0767 -4.1628 0.0000 -0.0000 -8.8222 -11.4262 -30.5820 5.8710 7.1250 -0.0000 -0.0000 22.8693 -59.5814 -8.4102
2.6439 17.0112 -1.1049 116.0830 -83.6844 -107.7700 0.0000 0.0000 0.0000 -18.7311 -3.1970 -12.7226 2.0910 9.0531 25.9615 0.9039 2.2571 -18.9089 0.0314 -1.1446 -3.1467 0.0000 0.0000 0.0000 11.1527 3.5507 -9.2441 -1.0542 -6.5286 18.3260 -0.5986 -12.6006 -24.0827 -0.5593 -4.7901 13.3110 -2.7849 -1.2642 -7.4852 1.1547 -1.5012 0.0371 2.5966 -0.8205 4.3422 -7.2440 -4.9439 -24.6381 0.3815 -4.4447 23.7570 0.5468 -2.6571 12.1023 -0.0000 -0.0000 0.0000 -96.1690 5.2865 25.4251 14.9549 -24.0832 -3.2075 -0.0000 0.0000 -12.0758 20.4368 -8.8604 -3.2849 -7.1250 0.0000 -0.0000 -4.6509 20.5490 2.7313 -0.0000 -0.0000 0.0000 88.5126 -7.2486 14.3074 -17.4146 27.4011 -4.2764 0.0000 -0.0000 -9.0442 -11.4468 -29.9495 5.7723 7.1250 -0.0000 -0.0000 22.3532 -59.0074 -7.8984
2.6292 17.0032 -1.0535 115.5220 -83.8936 -107.1790 0.0000 0.0000 0.0000 -18.8962 -3.7522 -12.5460 2.1023 9.0759 26.0331 0.9393 3.0620 -19.6564 0.0104 -0.6585 -1.8096 0.0000 0.0000 0.0000 11.1795 3.6994 -9.0311 -1.0383 -6.4808 18.1859 -0.5633 -13.0413 -24.2425 -0.5204 -4.6234 12.8376 -2.8123 -1.2948 -7.7802 1.0933 -1.5279 0.1259 2.5391 -0.8381 4.6017 -7.0550 -4.6930 -24.8473 0.6544 -4.2057 23.5015 0.6618 -2.4862 12.0317 0.0000 -0.0000 0.0000 -96.2654 5.1006 25.1129 14.6773 -23.6946 -3.0951 -0.0000 0.0000 -11.3707 21.1595 -9.1857 -3.5357 -7.1250 0.0000 -0.0000 -4.1360 20.1552 2.4640 0.0000 -0.0000 0.0000 88.9886 -7.6135 15.3039 -17.7715 27.8636 -4.4419 0.0000 -0.0000 -9.7182 -11.4972 -29.4852 5.7171 7.1250 -0.0000 -0.0000 21.9510 -58.5918 -7.5263
